<svg width="153" height="215" viewBox="0 0 153 215" fill="none" xmlns="http://www.w3.org/2000/svg">
<g opacity="0.2">
<line x1="75.9236" y1="6.55671e-08" x2="75.9236" y2="214.27" stroke="url(#paint0_linear)" stroke-width="3"/>
<line x1="94.9697" y1="107.135" x2="94.9697" y2="188.082" stroke="url(#paint1_linear)" stroke-width="3"/>
<line x1="113.222" y1="143.64" x2="113.222" y2="168.242" stroke="url(#paint2_linear)" stroke-width="3"/>
<line x1="133.062" y1="124.594" x2="133.062" y2="168.242" stroke="url(#paint3_linear)" stroke-width="3"/>
<line x1="133.062" y1="43.6476" x2="133.062" y2="92.0568" stroke="url(#paint4_linear)" stroke-width="3"/>
<line x1="151.315" y1="14.2847" x2="151.315" y2="169.035" stroke="url(#paint5_linear)" stroke-width="3"/>
<line y1="-1.5" x2="80.9465" y2="-1.5" transform="matrix(-4.37114e-08 1 1 4.37114e-08 59.3452 107.135)" stroke="url(#paint6_linear)" stroke-width="3"/>
<line y1="-1.5" x2="24.6014" y2="-1.5" transform="matrix(-4.37114e-08 1 1 4.37114e-08 41.0925 143.64)" stroke="url(#paint7_linear)" stroke-width="3"/>
<line y1="-1.5" x2="43.6476" y2="-1.5" transform="matrix(-4.37114e-08 1 1 4.37114e-08 21.2527 124.594)" stroke="url(#paint8_linear)" stroke-width="3"/>
<line y1="-1.5" x2="48.4092" y2="-1.5" transform="matrix(-4.37114e-08 1 1 4.37114e-08 21.2527 43.6476)" stroke="url(#paint9_linear)" stroke-width="3"/>
<line y1="-1.5" x2="154.751" y2="-1.5" transform="matrix(-4.37114e-08 1 1 4.37114e-08 3.00024 14.2847)" stroke="url(#paint10_linear)" stroke-width="3"/>
</g>
<defs>
<linearGradient id="paint0_linear" x1="74.4236" y1="107.135" x2="73.4236" y2="107.135" gradientUnits="userSpaceOnUse">
<stop stop-color="white"/>
<stop offset="1" stop-color="#FFF84C"/>
</linearGradient>
<linearGradient id="paint1_linear" x1="93.4697" y1="147.608" x2="92.4697" y2="147.608" gradientUnits="userSpaceOnUse">
<stop stop-color="white"/>
<stop offset="1" stop-color="#FFF84C"/>
</linearGradient>
<linearGradient id="paint2_linear" x1="111.722" y1="155.941" x2="110.722" y2="155.941" gradientUnits="userSpaceOnUse">
<stop stop-color="white"/>
<stop offset="1" stop-color="#FFF84C"/>
</linearGradient>
<linearGradient id="paint3_linear" x1="131.562" y1="146.418" x2="130.562" y2="146.418" gradientUnits="userSpaceOnUse">
<stop stop-color="white"/>
<stop offset="1" stop-color="#FFF84C"/>
</linearGradient>
<linearGradient id="paint4_linear" x1="131.562" y1="67.8522" x2="130.562" y2="67.8522" gradientUnits="userSpaceOnUse">
<stop stop-color="white"/>
<stop offset="1" stop-color="#FFF84C"/>
</linearGradient>
<linearGradient id="paint5_linear" x1="149.815" y1="91.66" x2="148.815" y2="91.66" gradientUnits="userSpaceOnUse">
<stop stop-color="white"/>
<stop offset="1" stop-color="#FFF84C"/>
</linearGradient>
<linearGradient id="paint6_linear" x1="40.4732" y1="0" x2="40.4732" y2="1" gradientUnits="userSpaceOnUse">
<stop stop-color="white"/>
<stop offset="1" stop-color="#FFF84C"/>
</linearGradient>
<linearGradient id="paint7_linear" x1="12.3007" y1="0" x2="12.3007" y2="1" gradientUnits="userSpaceOnUse">
<stop stop-color="white"/>
<stop offset="1" stop-color="#FFF84C"/>
</linearGradient>
<linearGradient id="paint8_linear" x1="21.8238" y1="0" x2="21.8238" y2="1" gradientUnits="userSpaceOnUse">
<stop stop-color="white"/>
<stop offset="1" stop-color="#FFF84C"/>
</linearGradient>
<linearGradient id="paint9_linear" x1="24.2046" y1="0" x2="24.2046" y2="1" gradientUnits="userSpaceOnUse">
<stop stop-color="white"/>
<stop offset="1" stop-color="#FFF84C"/>
</linearGradient>
<linearGradient id="paint10_linear" x1="77.3753" y1="0" x2="77.3753" y2="1" gradientUnits="userSpaceOnUse">
<stop stop-color="white"/>
<stop offset="1" stop-color="#FFF84C"/>
</linearGradient>
</defs>
</svg>
