<svg width="24" height="20" viewBox="0 0 24 20" fill="none" xmlns="http://www.w3.org/2000/svg">
<path d="M24 2.3399C23.8395 2.67882 23.5407 3.10692 23.1037 3.62418C22.6667 4.14144 22.1271 4.5963 21.4849 4.98872C21.5028 5.13144 21.5162 5.2652 21.5251 5.39006C21.5943 7.31246 21.1339 9.307 20.495 10.9687C19.2566 14.0581 17.3591 16.5446 14.6488 18.2329C11.8225 19.854 8.53098 20.1988 5.49832 19.9051C3.485 19.6739 1.50066 19.0164 0 17.778C2.74466 18.1061 5.3061 17.1724 7.3311 15.6643C5.08166 15.7212 3.44728 14.094 2.6756 12.2128C3.02346 12.304 3.38736 12.293 3.71908 12.2663C4.1274 12.228 4.515 12.1897 4.89634 12.1058C3.462 11.643 2.20696 10.7923 1.55186 9.51046C1.1676 8.69826 0.9941 7.92482 0.99 7.04892C1.6621 7.40278 2.47056 7.74766 3.21074 7.7178C2.0929 6.77086 1.19674 5.56066 1.03014 4.17264C0.92496 3.01532 1.21456 1.95888 1.63216 0.975317C3.3043 2.81302 5.18046 4.32536 7.34452 5.25626C8.82448 5.8623 10.3002 6.1864 11.8261 6.1927C11.65 4.8298 11.787 3.5117 12.4282 2.39336C13.1828 1.191 14.2837 0.493397 15.5185 0.145857C17.2852 -0.307183 19.0084 0.332757 20.0937 1.56392C21.2642 1.4375 22.3853 0.918257 23.2777 0.386657C22.8985 1.53486 22.1602 2.6765 21.0837 3.22278C22.1086 3.03302 23.0867 2.7296 24 2.3399Z" fill="white"/>
</svg>
